<svg xmlns="http://www.w3.org/2000/svg" viewBox="0 0 64 64" fill="none">
  <rect width="64" height="64" rx="14" fill="#FF5A5F"/>
  <path d="M32 16c-2 0-3.5 1.2-4.5 3-1 1.8-4.5 9-6.5 13-2 4-3 6.5-3 8.5 0 4 3.2 7.5 7 7.5 2.5 0 4.5-1.2 5.5-2.5.5-.6 1-1.4 1.5-2.2.5.8 1 1.6 1.5 2.2 1 1.3 3 2.5 5.5 2.5 3.8 0 7-3.5 7-7.5 0-2-1-4.5-3-8.5-2-4-5.5-11.2-6.5-13-1-1.8-2.5-3-4.5-3z" fill="white"/>
  <path d="M32 22c-.8 0-1.5.6-2 1.3-.8 1.4-3.5 7.2-5.2 10.5-1.6 3.2-2.3 5.2-2.3 6.7 0 2.5 2 4.8 4.5 4.8 1.6 0 2.8-.8 3.5-1.6.7-.8 1.2-1.8 1.5-2.5.3.7.8 1.7 1.5 2.5.7.8 1.9 1.6 3.5 1.6 2.5 0 4.5-2.3 4.5-4.8 0-1.5-.7-3.5-2.3-6.7-1.7-3.3-4.4-9.1-5.2-10.5-.5-.7-1.2-1.3-2-1.3z" fill="#FF5A5F"/>
</svg>