<svg xmlns="http://www.w3.org/2000/svg" viewBox="0 0 100 100" width="100" height="100">
  <defs>
    <linearGradient id="pin-grad" x1="0%" y1="0%" x2="100%" y2="100%">
      <stop offset="0%" style="stop-color:#34A853"/>
      <stop offset="50%" style="stop-color:#4285F4"/>
      <stop offset="100%" style="stop-color:#EA4335"/>
    </linearGradient>
  </defs>
  <rect width="100" height="100" rx="22" fill="#F1F3F4"/>
  <g transform="translate(50,45)">
    <path d="M0-28C-15.5-28-28-15.5-28 0c0 17.5 28 40 28 40s28-22.5 28-40C28-15.5 15.5-28 0-28z" fill="#EA4335"/>
    <path d="M0-28v18c5.5 0 10 4.5 10 10s-4.5 10-10 10v32s28-22.5 28-40C28-15.5 15.5-28 0-28z" fill="#C5221F"/>
    <circle cx="0" cy="0" r="10" fill="white"/>
    <path d="M-14-14L0 0L-5 10" fill="#FBBC04" opacity="0.6"/>
    <path d="M14-14L0 0L5 10" fill="#4285F4" opacity="0.6"/>
  </g>
</svg>